#!OML:ASF I:\salsa\salsa 7_09\Patient 1\Session 1\dancermale.ASF
:FULLY-SPECIFIED
:DEGREES
1219
root 6.2914 17.241 -6.66801 189.767 -310.928 178.314
lowerback -7.5243 6.33144 0.0991697
upperback -1.67445 8.66236 -3.82801
thorax 3.06027 4.38394 -3.10314
lowerneck -7.80417 -3.52054 1.1832
upperneck 31.5723 -3.46796 1.40145
head 11.5519 -0.425914 0.069808
rclavicle 6.50523e-014 -4.77083e-014
rhumerus -64.5415 3.77057 -112.51
rradius 39.6422
rwrist -366.824
rhand 42.389 3.67603
rfingers 7.12502
rthumb 64.3435 -4.55727
lclavicle 6.50523e-014 -4.77083e-014
lhumerus -76.2838 -8.60175 133.684
lradius 53.8114
lwrist 15.9718
lhand -8.12023 41.7572
lfingers 7.12502
lthumb 17.7932 -289.037
rfemur -34.9592 -7.41966 14.3196
rtibia 73.4139
rfoot -1.73978 -10.5032
rtoes 26.6434
lfemur -18.3574 -8.38317 -27.6814
ltibia 27.9937
lfoot -21.4597 -0.854281
ltoes 3.91925
1220
root 6.47717 17.3027 -6.60776 189.674 -314.73 178.266
lowerback -7.4794 6.05143 0.143159
upperback -1.58446 8.26705 -3.50303
thorax 3.06185 4.18141 -2.83922
lowerneck -7.8075 -2.25623 2.07314
upperneck 31.5415 -1.52833 0.880862
head 11.5208 0.529296 -0.0402061
rclavicle 3.85642e-014 -1.94809e-014
rhumerus -65.2983 1.85117 -112.626
rradius 41.341
rwrist -375.043
rhand 41.0213 -0.900942
rfingers 7.12502
rthumb 63.2362 -10.7655
lclavicle 3.85642e-014 -1.94809e-014
lhumerus -76.4266 -8.27541 133.494
lradius 55.0132
lwrist 16.8149
lhand -7.33813 42.6823
lfingers 7.12502
lthumb 18.5456 -288.182
rfemur -35.119 -4.53613 12.0946
rtibia 70.707
rfoot -2.72849 -9.35086
rtoes 28.4426
lfemur -17.2738 -10.7659 -26.8919
ltibia 26.9675
lfoot -21.5384 -2.05191
ltoes 3.70596
1221
root 6.67441 17.3542 -6.54719 189.77 -318.463 178.833
lowerback -7.32716 5.85417 0.539229
upperback -1.41767 7.93767 -2.99116
thorax 3.11124 4.01003 -2.57383
lowerneck -7.63186 -0.925466 2.94901
upperneck 31.3598 0.552839 0.254524
head 11.431 1.5284 -0.17366
rclavicle -9.39258e-015 -1.59028e-014
rhumerus -66.0302 -0.165536 -112.223
rradius 42.8498
rwrist -380.67
rhand 39.9148 -2.64966
rfingers 7.12502
rthumb 62.3245 -13.7335
lclavicle -9.39258e-015 -1.59028e-014
lhumerus -76.3868 -7.8609 132.661
lradius 56.2679
lwrist 19.0022
lhand -5.48161 43.9028
lfingers 7.12502
lthumb 20.3306 -287.141
rfemur -34.7711 -1.22528 10.2227
rtibia 67.7569
rfoot -3.61527 -7.24463
rtoes 30.3498
lfemur -16.1398 -12.6844 -25.5497
ltibia 26.06
lfoot -21.6535 -3.15696
ltoes 2.19356
1222
root 6.87602 17.4018 -6.49065 189.755 -322.274 179.354
lowerback -7.22347 5.65785 0.998192
upperback -1.20952 7.60982 -2.52016
thorax 3.24586 3.8423 -2.37642
lowerneck -7.49348 0.356181 4.09094
upperneck 31.2418 2.60597 -0.621637
head 11.4202 2.52037 -0.447874
rclavicle 1.86609e-014 1.47101e-014
rhumerus -66.5112 -2.27501 -111.49
rradius 43.7459
rwrist -383.306
rhand 38.8313 -1.24802
rfingers 7.12502
rthumb 61.4195 -13.4465
lclavicle 1.86609e-014 1.47101e-014
lhumerus -76.5338 -7.67775 131.895
lradius 57.4799
lwrist 20.0392
lhand -4.11037 46.4231
lfingers 7.12502
lthumb 21.648 -284.767
rfemur -34.1136 1.65776 8.61478
rtibia 64.2979
rfoot -4.1486 -4.1722
rtoes 22.301
lfemur -15.1559 -14.3625 -24.1934
ltibia 25.3277
lfoot -21.6194 -4.57348
ltoes 1.54377
1223
root 7.07343 17.4496 -6.43603 189.845 -326.115 179.705
lowerback -7.41326 5.42346 1.35066
upperback -1.06111 7.24391 -2.06406
thorax 3.46882 3.65743 -2.1153
lowerneck -7.23385 1.57516 5.09981
upperneck 31.0794 4.61879 -1.49068
head 11.4136 3.48163 -0.699732
rclavicle -2.09718e-014 1.55052e-014
rhumerus -67.031 -3.92628 -110.663
rradius 44.2561
rwrist -384.131
rhand 36.4918 1.47256
rfingers 7.12502
rthumb 59.429 -12.8935
lclavicle -2.09718e-014 1.55052e-014
lhumerus -76.829 -7.53865 131.142
lradius 58.8409
lwrist 20.1456
lhand -2.67918 49.8208
lfingers 7.12502
lthumb 23.0218 -281.534
rfemur -33.3834 4.9418 6.59311
rtibia 60.5825
rfoot -4.48124 1.63956
rtoes 27.4884
lfemur -14.6508 -15.8659 -22.8906
ltibia 24.8091
lfoot -21.3698 -6.40808
ltoes 3.0289
1224
root 7.26853 17.4959 -6.37824 189.994 -329.741 180.09
lowerback -7.62571 5.31099 1.80672
upperback -0.981291 7.03726 -1.71692
thorax 3.66932 3.55668 -2.00732
lowerneck -6.68193 2.69254 5.97614
upperneck 30.732 6.4376 -2.03264
head 11.2961 4.38167 -0.838598
rclavicle 7.62463e-014 -1.43125e-014
rhumerus -67.5541 -5.25419 -110.14
rradius 44.6843
rwrist -385.228
rhand 33.4621 3.53782
rfingers 7.12502
rthumb 56.7896 -13.2221
lclavicle 7.62463e-014 -1.43125e-014
lhumerus -77.2431 -7.60985 129.656
lradius 60.4421
lwrist 21.5889
lhand -1.66296 51.6186
lfingers 7.12502
lthumb 23.9966 -279.861
rfemur -32.7385 7.83491 5.2103
rtibia 57.0604
rfoot -4.53029 6.26935
rtoes 23.9323
lfemur -14.3595 -17.0106 -21.4951
ltibia 24.3224
lfoot -21.1594 -8.13034
ltoes 4.71537
1225
root 7.46439 17.5369 -6.31757 189.741 -333.27 180.371
lowerback -7.49313 5.22788 2.30154
upperback -0.785303 6.8728 -1.52495
thorax 3.82455 3.47996 -2.10193
lowerneck -6.24701 3.80387 7.02199
upperneck 30.4645 8.18649 -2.4007
head 11.263 5.28773 -0.944847
rclavicle -2.36678e-015 4.77083e-015
rhumerus -67.9579 -6.14688 -110.316
rradius 45.1208
rwrist -386.716
rhand 30.0609 5.341
rfingers 7.12502
rthumb 53.7617 -13.6569
lclavicle -2.36678e-015 4.77083e-015
lhumerus -77.8705 -8.2232 128.356
lradius 62.0855
lwrist 21.2139
lhand 0.550923 53.3907
lfingers 7.12502
lthumb 26.118 -278.385
rfemur -31.6585 10.8413 4.04599
rtibia 53.7011
rfoot -4.20864 9.61729
rtoes 24.1896
lfemur -13.7634 -17.79 -20.2945
ltibia 23.7762
lfoot -20.9785 -9.84812
ltoes 6.01276
1226
root 7.66243 17.5715 -6.25455 189.295 -336.8 180.64
lowerback -7.33077 5.08911 2.64269
upperback -0.420164 6.63716 -1.19229
thorax 4.0988 3.36559 -1.97063
lowerneck -5.79199 4.84628 7.75795
upperneck 29.8033 9.82629 -2.9175
head 11.0861 6.06304 -1.07625
rclavicle 2.99575e-014 -1.17283e-014
rhumerus -68.397 -6.28109 -111.09
rradius 45.7895
rwrist -387.514
rhand 25.151 7.28852
rfingers 7.12502
rthumb 49.2998 -14.2943
lclavicle 2.99575e-014 -1.17283e-014
lhumerus -78.3294 -8.99625 127.531
lradius 63.5579
lwrist 19.2193
lhand 3.63105 55.3378
lfingers 7.12502
lthumb 29.0634 -276.909
rfemur -30.3046 13.654 3.2272
rtibia 50.7088
rfoot -3.12738 11.2503
rtoes 28.2201
lfemur -13.0546 -18.3627 -19.1162
ltibia 23.203
lfoot -20.6941 -11.7475
ltoes 7.27782
1227
root 7.86722 17.6023 -6.18982 188.929 -340.259 180.808
lowerback -7.31764 4.93566 2.7388
upperback -0.106363 6.40173 -0.84551
thorax 4.37464 3.2484 -1.68014
lowerneck -5.10988 5.8605 8.39121
upperneck 28.9584 11.4631 -3.51316
head 10.8194 6.82187 -1.232
rclavicle -6.4605e-015 -7.95139e-015
rhumerus -68.9358 -6.23894 -111.589
rradius 46.7463
rwrist -389.047
rhand 22.0183 7.62761
rfingers 7.12502
rthumb 46.4104 -15.294
lclavicle -6.4605e-015 -7.95139e-015
lhumerus -78.866 -9.89463 127.038
lradius 65.1506
lwrist 17.605
lhand 7.18092 58.057
lfingers 7.12502
lthumb 32.4479 -274.828
rfemur -29.0943 15.9135 2.75484
rtibia 48.1409
rfoot -2.06456 11.5497
rtoes 26.8034
lfemur -12.6239 -19.1016 -17.9428
ltibia 22.6639
lfoot -20.3271 -13.4582
ltoes 7.76769
1228
root 8.07908 17.6259 -6.12193 188.546 -343.711 180.913
lowerback -7.24032 4.74124 2.78378
upperback 0.143394 6.12472 -0.611048
thorax 4.55505 3.11096 -1.49148
lowerneck -4.78096 6.75944 8.96862
upperneck 28.5303 12.9338 -3.90104
head 10.7739 7.53014 -1.29447
rclavicle -3.35449e-014 1.49089e-015
rhumerus -69.5429 -6.01697 -112.371
rradius 47.7707
rwrist -390.116
rhand 18.9481 7.69084
rfingers 7.12502
rthumb 43.5539 -16.3564
lclavicle -3.35449e-014 1.49089e-015
lhumerus -79.4211 -10.859 126.491
lradius 66.6832
lwrist 16.617
lhand 10.7144 61.1112
lfingers 7.12502
lthumb 35.8036 -272.524
rfemur -27.873 17.817 2.59008
rtibia 45.8396
rfoot 1.07859 11.7139
rtoes 29.0632
lfemur -12.3714 -20.2456 -16.8166
ltibia 22.2224
lfoot -19.9748 -14.6934
ltoes 6.86873
1229
root 8.30089 17.6396 -6.05519 188.033 -347.131 181.253
lowerback -7.05352 4.57107 3.03939
upperback 0.460128 5.86377 -0.354261
thorax 4.76584 2.98753 -1.399
lowerneck -4.33994 10.9329 9.33404
upperneck 28.2792 12.836 -3.28967
head 10.6527 5.74328 -1.47203
rclavicle 1.75303e-014 -2.5842e-015
rhumerus -70.0028 -5.78107 -113.193
rradius 48.6531
rwrist -391.055
rhand 16.6211 7.65151
rfingers 7.12502
rthumb 41.3753 -17.1444
lclavicle 1.75303e-014 -2.5842e-015
lhumerus -79.6067 -11.6002 125.412
lradius 68.0517
lwrist 16.0114
lhand 13.3129 63.5966
lfingers 7.12502
lthumb 38.2613 -270.676
rfemur -26.368 19.1274 3.28839
rtibia 44.3021
rfoot 3.92965 16.5062
rtoes 28.3673
lfemur -12.0171 -21.6997 -15.4772
ltibia 21.8285
lfoot -19.412 -15.6808
ltoes 5.90161
1230
root 8.52367 17.6485 -5.99341 187.446 -350.458 181.791
lowerback -6.83013 4.46643 3.53172
upperback 0.782465 5.6743 -0.0793199
thorax 4.98778 2.90817 -1.41117
lowerneck -3.7368 11.5336 9.75942
upperneck 27.5386 13.9543 -3.82602
head 10.4232 6.32534 -1.6083
rclavicle 1.29831e-014 -1.19271e-015
rhumerus -70.3406 -5.57668 -113.892
rradius 49.3036
rwrist -392.095
rhand 15.4445 7.78646
rfingers 7.12502
rthumb 40.2699 -17.3576
lclavicle 1.29831e-014 -1.19271e-015
lhumerus -79.9564 -12.2765 124.704
lradius 69.0416
lwrist 15.3575
lhand 12.1654 65.2955
lfingers 7.12502
lthumb 37.1772 -91.3139
rfemur -24.7705 19.9906 4.58297
rtibia 43.5907
rfoot 6.12756 17.475
rtoes 25.5915
lfemur -11.7118 -23.3312 -13.9778
ltibia 21.5805
lfoot -18.5176 -16.6043
ltoes 5.9244
1231
root 8.73494 17.659 -5.92365 187.038 -353.788 181.934
lowerback -6.73302 4.33303 3.73378
upperback 0.975643 5.47636 0.0260311
thorax 5.13311 2.81845 -1.43596
lowerneck -3.47124 12.0486 9.81427
upperneck 27.1821 14.8312 -3.96075
head 10.3263 6.77424 -1.56114
rclavicle -2.38417e-014 3.18055e-015
rhumerus -70.6613 -5.44753 -114.414
rradius 49.8169
rwrist -393.269
rhand 14.554 7.82649
rfingers 7.12502
rthumb 39.4317 -17.5685
lclavicle -2.38417e-014 3.18055e-015
lhumerus -80.669 -13.5153 124.537
lradius 70.2597
lwrist 15.4093
lhand 10.5205 66.3133
lfingers 7.12502
lthumb 35.6198 -92.7223
rfemur -23.5701 20.0158 5.54376
rtibia 43.6102
rfoot 7.42152 16.9743
rtoes 27.4161
lfemur -12.0986 -24.9582 -12.844
ltibia 21.786
lfoot -17.5811 -17.4538
ltoes 6.88488
1232
root 8.96261 17.6724 -5.84731 186.774 -356.613 181.53
lowerback -6.72152 4.28646 3.06998
upperback 1.11393 5.46658 0.00166574
thorax 5.20908 2.79562 -1.09174
lowerneck -3.74104 12.5008 9.68263
upperneck 27.3081 15.5116 -3.80598
head 10.4526 7.11242 -1.37446
rclavicle 2.52953e-014 9.14409e-015
rhumerus -70.9547 -5.33657 -114.716
rradius 50.1624
rwrist -393.733
rhand 13.0675 7.80625
rfingers 7.12502
rthumb 38.0297 -17.9849
lclavicle 2.52953e-014 9.14409e-015
lhumerus -80.9427 -14.5403 124.096
lradius 70.3943
lwrist 10.6569
lhand 10.2458 67.0247
lfingers 7.12502
lthumb 35.3594 -93.4961
rfemur -22.8033 19.2984 6.1742
rtibia 43.5356
rfoot 7.62366 16.5596
rtoes 26.804
lfemur -12.9113 -25.752 -12.2082
ltibia 22.3463
lfoot -16.4573 -18.4579
ltoes 9.5829
1233
root 9.18599 17.6838 -5.76975 186.508 -359.326 181.065
lowerback -6.7006 4.30506 2.42341
upperback 1.33306 5.5458 -0.0824481
thorax 5.37595 2.81806 -0.804512
lowerneck -3.98397 12.8536 9.60618
upperneck 27.2941 16.0866 -3.79274
head 10.5293 7.39816 -1.2599
rclavicle 3.35698e-014 -1.78906e-015
rhumerus -71.0628 -5.24671 -114.647
rradius 50.1903
rwrist -392.915
rhand 11.1602 8.01436
rfingers 7.12502
rthumb 36.226 -18.2463
lclavicle 3.35698e-014 -1.78906e-015
lhumerus -80.8112 -15.6382 123.146
lradius 70.6023
lwrist 5.97226
lhand 11.0386 67.5411
lfingers 7.12502
lthumb 36.1107 -93.8303
rfemur -21.4158 18.2179 6.7967
rtibia 42.5831
rfoot 7.30546 16.2006
rtoes 24.2143
lfemur -14.0891 -25.9127 -11.6832
ltibia 23.5238
lfoot -15.2026 -19.7635
ltoes 11.9272
